<svg width="24" height="24" viewBox="0 0 24 24" fill="none" xmlns="http://www.w3.org/2000/svg">
<path d="M23.2592 13.8985C24.7358 10.2516 23.9999 5.91567 21.0467 2.95786C17.1139 -0.984326 10.7342 -0.984326 6.80142 2.95786L4.17642 5.58755L14.0905 15.5016C16.2514 12.5907 20.2545 11.8735 23.2592 13.8985ZM13.0452 17.6344L2.71392 7.30786C1.43423 9.4313 1.69673 12.2297 3.52486 14.0625L5.14205 15.6844L0.313922 19.875C-0.0892031 20.2266 -0.112641 20.8454 0.267047 21.225L2.77017 23.7329C3.14517 24.1125 3.76392 24.0891 4.11548 23.686L8.30142 18.8438L9.97486 20.5172C10.8983 21.4407 12.0655 21.9469 13.2702 22.0782C12.9374 21.2813 12.7545 20.4094 12.7545 19.4954C12.7499 18.8485 12.8717 18.2297 13.0452 17.6344ZM19.4999 15C17.0155 15 14.9999 17.0157 14.9999 19.5C14.9999 21.9844 17.0155 24 19.4999 24C21.9842 24 23.9999 21.9844 23.9999 19.5C23.9999 17.0157 21.9842 15 19.4999 15Z" fill="white"/>
</svg>
