<svg width="22" height="24" viewBox="0 0 22 24" fill="none" xmlns="http://www.w3.org/2000/svg">
<path d="M5.74997 6C5.74997 4.61719 6.50935 3.42188 7.62497 2.77031V12H9.87497V2.25H12.125V12H14.375V2.77031C15.4906 3.42188 16.25 4.61719 16.25 6V12H18.5V6C18.5 2.68594 15.814 0 12.5 0H9.49997C6.18591 0 3.49997 2.68594 3.49997 6V12H5.74997V6ZM21.4203 16.0266L20.9187 14.5266C20.7125 13.9125 20.1406 13.5 19.4937 13.5H2.50153C1.85466 13.5 1.28278 13.9125 1.07653 14.5266L0.574972 16.0266C0.256222 16.9969 0.978097 18 1.99997 18V23.25C1.99997 23.6625 2.33747 24 2.74997 24H4.24997C4.66247 24 4.99997 23.6625 4.99997 23.25V18H17V23.25C17 23.6625 17.3375 24 17.75 24H19.25C19.6625 24 20 23.6625 20 23.25V18C21.0218 18 21.7437 16.9969 21.4203 16.0266Z" fill="white"/>
</svg>
