<svg width="25" height="22" viewBox="0 0 25 22" fill="none" xmlns="http://www.w3.org/2000/svg">
<path d="M14.5656 0.5H23.5656C24.1869 0.5 24.6906 1.00367 24.6906 1.625V9.125C24.6906 9.74633 24.1869 10.25 23.5656 10.25H14.5656C13.9442 10.25 13.4406 9.74633 13.4406 9.125V1.625C13.4406 1.00367 13.9442 0.5 14.5656 0.5ZM10.8156 0.5H1.81555C1.19422 0.5 0.690552 1.00367 0.690552 1.625V9.125C0.690552 9.74633 1.19422 10.25 1.81555 10.25H10.8156C11.4369 10.25 11.9406 9.74633 11.9406 9.125V1.625C11.9406 1.00367 11.4369 0.5 10.8156 0.5ZM0.690552 12.875V20.375C0.690552 20.9963 1.19422 21.5 1.81555 21.5H10.8156C11.4369 21.5 11.9406 20.9963 11.9406 20.375V12.875C11.9406 12.2537 11.4369 11.75 10.8156 11.75H1.81555C1.19422 11.75 0.690552 12.2537 0.690552 12.875ZM14.5656 21.5H23.5656C24.1869 21.5 24.6906 20.9963 24.6906 20.375V12.875C24.6906 12.2537 24.1869 11.75 23.5656 11.75H14.5656C13.9442 11.75 13.4406 12.2537 13.4406 12.875V20.375C13.4406 20.9963 13.9442 21.5 14.5656 21.5Z" fill="white"/>
</svg>
