<svg width="24" height="20" viewBox="0 0 24 20" fill="none" xmlns="http://www.w3.org/2000/svg">
<path d="M23.6701 4.01865L16.3688 0.399902C15.6151 1.4424 13.9463 2.1699 12.0001 2.1699C10.0538 2.1699 8.38506 1.4424 7.63131 0.399902L0.330061 4.01865C0.0338115 4.16865 -0.0861885 4.52865 0.0600615 4.8249L2.20506 9.11865C2.35506 9.4149 2.71506 9.5349 3.01131 9.38865L5.13381 8.3499C5.53131 8.1549 5.99631 8.44365 5.99631 8.8899V18.3999C5.99631 19.0637 6.53256 19.5999 7.19631 19.5999H16.7963C17.4601 19.5999 17.9963 19.0637 17.9963 18.3999V8.88615C17.9963 8.44365 18.4613 8.15115 18.8588 8.34615L20.9813 9.3849C21.2776 9.5349 21.6376 9.4149 21.7876 9.1149L23.9363 4.8249C24.0863 4.52865 23.9663 4.1649 23.6701 4.01865Z" fill="white"/>
</svg>
