<svg width="12" height="12" viewBox="0 0 12 12" fill="none" xmlns="http://www.w3.org/2000/svg">
<path fill-rule="evenodd" clip-rule="evenodd" d="M5.88412 0.196428C5.95878 0.167922 6.04132 0.167922 6.11598 0.196428L11.616 2.29643C11.7425 2.34475 11.8259 2.46652 11.825 2.60199C11.8242 2.73747 11.7395 2.85823 11.6123 2.90503L6.11234 4.93003C6.03986 4.95672 5.96024 4.95672 5.88776 4.93003L0.387759 2.90503C0.260626 2.85823 0.175864 2.73747 0.175055 2.60199C0.174245 2.46652 0.257557 2.34475 0.384121 2.29643L5.88412 0.196428ZM1.42567 2.59452L6.00005 4.27872L10.5744 2.59452L6.00005 0.847933L1.42567 2.59452Z" fill="#7F8E9D"/>
<path fill-rule="evenodd" clip-rule="evenodd" d="M0.500049 2.23755C0.679541 2.23755 0.825049 2.38306 0.825049 2.56255V8.48876L6.00005 10.4647L11.175 8.48876V2.56255C11.175 2.38306 11.3206 2.23755 11.5 2.23755C11.6795 2.23755 11.825 2.38306 11.825 2.56255V8.71255C11.825 8.84732 11.7419 8.9681 11.616 9.01617L6.11598 11.1162C6.04132 11.1447 5.95878 11.1447 5.88412 11.1162L0.384121 9.01617C0.25822 8.9681 0.175049 8.84732 0.175049 8.71255V2.56255C0.175049 2.38306 0.320556 2.23755 0.500049 2.23755Z" fill="#7F8E9D"/>
<path fill-rule="evenodd" clip-rule="evenodd" d="M6.00005 4.30005C6.17954 4.30005 6.32505 4.44556 6.32505 4.62505V10.8125C6.32505 10.992 6.17954 11.1375 6.00005 11.1375C5.82056 11.1375 5.67505 10.992 5.67505 10.8125V4.62505C5.67505 4.44556 5.82056 4.30005 6.00005 4.30005Z" fill="#7F8E9D"/>
<path fill-rule="evenodd" clip-rule="evenodd" d="M3.98027 1.06493C4.04797 0.898691 4.23761 0.818816 4.40385 0.886518L9.5601 2.98652C9.68249 3.03637 9.76251 3.15536 9.76251 3.28751V5.31251C9.76251 5.492 9.617 5.63751 9.43751 5.63751C9.25802 5.63751 9.11251 5.492 9.11251 5.31251V3.50607L4.15868 1.48851C3.99244 1.4208 3.91257 1.23116 3.98027 1.06493Z" fill="#7F8E9D"/>
</svg>
